# xmcd CD database file
#
# Track frame offsets:
#	150
#	22331
#	39502
#	59375
#	78236
#	95793
#	116122
#	134938
#	151001
#	167342
#	196074
#	212386
#	227305
#	244844
#	262096
#	277783
#	294995
#	314649
#	325338
#
# Disc length: 4495 seconds
#
# Revision: 0
# Processed by: cddbd v1.5.2PL0 Copyright (c) Steve Scherf et al.
# Submitted via: CDex 1.97
#
DISCID=0d118d13
DTITLE=Various Artist - Adieu 2018 [CD1)
DYEAR=2018
DGENRE=Hits
TTITLE0=Queen - Who Wants To Live Forever
TTITLE1=Elton John - Candle In The Wind
TTITLE2=Robbie Williams - Angels
TTITLE3=Michael Jackson - One Day In Your Life
TTITLE4=Bangles - Eternal Flame
TTITLE5=Jacques Brel - Ne Me Quitte Pas
TTITLE6=Ronan Keating - If Tomorrow Never Comes
TTITLE7=Passenger - Let Her Go
TTITLE8=Whitney Houston - I Will Always Love You
TTITLE9=Supertramp - Don't Leave Me Now
TTITLE10=Elvis Presley - Always On My Mind
TTITLE11=Yves Montand - Les Feuilles Mortes
TTITLE12=3 Doors Down - Here Without You
TTITLE13=Editors - No Sound But The Wind
TTITLE14=Daniel Guichard - Mon Vieux
TTITLE15=Nelly Furtado - All Good Things
TTITLE16=James Morrison - I Won't Let You Go
TTITLE17=Righteous Brothers - Unchained Melody
TTITLE18=Edith Piaf - Non, Je Ne Regrette Rien
EXTD=YEAR: 2018
EXTT0=
EXTT1=
EXTT2=
EXTT3=
EXTT4=
EXTT5=
EXTT6=
EXTT7=
EXTT8=
EXTT9=
EXTT10=
EXTT11=
EXTT12=
EXTT13=
EXTT14=
EXTT15=
EXTT16=
EXTT17=
EXTT18=
PLAYORDER=
